<?xml version="1.0" encoding="utf-8"?>
<!-- Generator: Adobe Illustrator 21.1.0, SVG Export Plug-In . SVG Version: 6.00 Build 0)  -->
<svg version="1.1" xmlns="http://www.w3.org/2000/svg" xmlns:xlink="http://www.w3.org/1999/xlink" x="0px" y="0px"
	 viewBox="0 0 97.8 28.9" style="enable-background:new 0 0 97.8 28.9;" xml:space="preserve">
<style type="text/css">
	.st0{fill:#F2F2F2;}
	.st1{fill:url(#SVGID_1_);}
	.st2{fill:#FFFFFF;}
	.st3{fill:#005189;}
	.st4{fill:#00314C;}
	.st5{fill:url(#XMLID_326_);}
	.st6{fill:#33414A;}
	.st7{fill:#005E9D;}
	.st8{fill:url(#SVGID_2_);}
	.st9{display:none;}
	.st10{display:inline;}
	.st11{fill:#B8529E;}
</style>
<g id="Layer_1">
	<g id="XMLID_122_">
		<polygon id="XMLID_324_" class="st3" points="91.9,16.3 91.9,16.7 92.6,16.7 92.6,18.6 93.2,18.6 93.2,16.7 93.9,16.7 93.8,16.3 
					"/>
		<polygon id="XMLID_323_" class="st3" points="96.6,16.3 96,16.3 95.5,17.9 94.9,16.3 94.3,16.3 94.1,18.6 94.5,18.6 94.7,17.1 
			95.2,18.6 95.6,18.6 96.2,17.1 96.3,18.6 96.8,18.6 		"/>
		<polygon id="XMLID_322_" class="st3" points="33.7,24.2 31.2,16.1 28.2,16.5 32.2,27.7 34.9,27.7 39,16.3 36.2,16.3 		"/>
		<path id="XMLID_308_" class="st3" d="M44.5,16.1c-3,0-5.2,2.2-5.2,5.9c0,4.1,2.4,5.9,5.6,5.9c1.8,0,3.3-0.5,4.5-1.4l-0.3-2.2
			c-1.2,0.9-2.4,1.4-3.9,1.4c-1.7,0-2.9-1-3.1-3.2h7.3c0-0.2,0-0.4,0-0.7C49.4,18.6,47.9,16.1,44.5,16.1z M42.2,20.8
			c0.2-1.9,1.1-2.8,2.3-2.8c1.4,0,2.1,1,2.3,2.8H42.2z"/>
		<path id="XMLID_307_" class="st3" d="M57.5,16.1c-1.5,0-2.7,0.8-3.8,1.8l-0.3-1.6H51v11.4h2.8V20c0.8-0.9,1.7-1.4,2.6-1.4
			c1,0,1.5,0.7,1.5,1.7v7.4h2.8v-8.2C60.7,17.4,59.6,16.1,57.5,16.1z"/>
		<path id="XMLID_294_" class="st3" d="M75.5,16.1c-3.1,0-5.3,2.2-5.3,5.9s2.2,5.9,5.3,5.9c3.1,0,5.4-2.2,5.4-5.9
			S78.6,16.1,75.5,16.1z M75.5,25.6c-1.6,0-2.6-1.5-2.6-3.6c0-2.1,0.9-3.6,2.6-3.6c1.7,0,2.6,1.5,2.6,3.6
			C78.1,24.1,77.2,25.6,75.5,25.6z"/>
		<path id="XMLID_293_" class="st3" d="M86.7,20.6c-1.7-0.4-2.1-0.8-2.1-1.4c0-0.6,0.5-1,1.6-1c1.1,0,2.5,0.4,3.6,1l0.4-2.4
			c-1.1-0.5-2.5-0.8-4-0.8c-2.6,0-4.2,1.4-4.2,3.3c0,2.1,1.2,2.9,3.9,3.6c1.8,0.4,2.3,0.8,2.3,1.6c0,0.7-0.7,1.2-1.9,1.2
			c-1.4,0-2.9-0.5-4.1-1.3l-0.4,2.4c1.1,0.6,2.8,1.1,4.4,1.1c3,0,4.6-1.3,4.6-3.6C90.8,22.2,89.6,21.4,86.7,20.6z"/>
		<path id="XMLID_232_" class="st3" d="M24.1,16.6c-0.7-0.2-1.6-0.4-2.6-0.4c-2.6,0-5,1.9-5,6.1c0,3.8,1.9,5.6,4.3,5.6
			c1.6,0,2.7-0.8,3.5-1.8l0.2,1.6H27v-17l-2.8,0.9V16.6z M24.1,23.8c-0.8,0.9-1.6,1.6-2.6,1.6c-1.2,0-2.2-1-2.2-3.2
			c0-2.5,1.1-3.7,2.6-3.7c1,0,1.5,0.2,2.2,0.5V23.8z"/>
		<path id="XMLID_231_" class="st3" d="M68.3,25.4c-1.1,0-1.5-0.5-1.5-1.4v-5.4h2.7l-0.4-2.3h-2.3v-4L64,13.1v3.2h-1.6v2.3H64v5.8
			c0,2.6,1.5,3.4,3.7,3.4c0.8,0,1.3-0.1,1.8-0.2l-0.4-2.4C68.9,25.4,68.6,25.4,68.3,25.4z"/>
		<g id="XMLID_145_">
			<path id="XMLID_230_" class="st3" d="M14.7,23.4l-4.5-12H6.9L0.8,27.7h0.4h2.5v0c1.1-2.5,3.4-4.3,6.1-4.8L9,20.6
				c-1.1,0.2-2.2,0.7-3.2,1.3l2.6-7.1l0,0l2.2,6.3l0.6,1.6l0,0.1l0,0l0.3,0.8l1.6,4.3l3.1-0.6L14.7,23.4L14.7,23.4z"/>
		</g>
	</g>
	<g>
		<path class="st3" d="M30.4,4.2v2H30V1.3h1.2c0.5,0,0.9,0.1,1.2,0.3c0.3,0.2,0.4,0.6,0.4,1c0,0.5-0.1,0.8-0.4,1.1
			C32,4,31.6,4.2,31.1,4.2H30.4z M30.4,1.6v2.3h0.7c0.4,0,0.8-0.1,1-0.3c0.2-0.2,0.3-0.5,0.3-0.9c0-0.7-0.4-1.1-1.3-1.1H30.4z"/>
		<path class="st3" d="M35.4,3c-0.1-0.1-0.2-0.1-0.4-0.1c-0.3,0-0.5,0.1-0.7,0.4c-0.2,0.3-0.3,0.7-0.3,1.2v1.6h-0.3V2.7h0.3v0.8h0
			c0.1-0.3,0.2-0.5,0.4-0.6c0.2-0.1,0.4-0.2,0.6-0.2c0.1,0,0.2,0,0.3,0.1V3z"/>
		<path class="st3" d="M36.2,4.4c0,0.5,0.1,0.9,0.3,1.1C36.8,5.8,37.1,6,37.4,6c0.4,0,0.8-0.1,1.1-0.4v0.3c-0.4,0.3-0.8,0.4-1.2,0.4
			c-0.5,0-0.8-0.2-1.1-0.5C36,5.4,35.9,5,35.9,4.4c0-0.5,0.1-0.9,0.4-1.3c0.3-0.3,0.7-0.5,1.1-0.5c0.4,0,0.8,0.2,1,0.5
			s0.3,0.7,0.3,1.3v0.1H36.2z M38.5,4.1c0-0.4-0.1-0.7-0.3-0.9C38,3,37.7,2.9,37.4,2.9c-0.3,0-0.6,0.1-0.8,0.3
			c-0.2,0.2-0.3,0.5-0.4,0.9H38.5z"/>
		<path class="st3" d="M39.6,6V5.6c0.1,0.1,0.3,0.2,0.4,0.2C40.2,5.9,40.3,6,40.4,6c0.5,0,0.8-0.2,0.8-0.7c0-0.2-0.1-0.3-0.2-0.4
			c-0.1-0.1-0.3-0.2-0.6-0.3c-0.3-0.1-0.6-0.3-0.7-0.5s-0.2-0.3-0.2-0.6c0-0.3,0.1-0.5,0.3-0.7c0.2-0.2,0.5-0.3,0.8-0.3
			c0.3,0,0.6,0.1,0.8,0.2v0.4c-0.3-0.2-0.5-0.3-0.8-0.3c-0.2,0-0.4,0.1-0.6,0.2c-0.1,0.1-0.2,0.3-0.2,0.5c0,0.2,0,0.3,0.1,0.4
			c0.1,0.1,0.3,0.2,0.6,0.4c0.4,0.2,0.6,0.3,0.8,0.5s0.2,0.3,0.2,0.6c0,0.3-0.1,0.5-0.3,0.7c-0.2,0.2-0.5,0.3-0.9,0.3
			C40.1,6.2,39.8,6.2,39.6,6z"/>
		<path class="st3" d="M42.7,4.4c0,0.5,0.1,0.9,0.3,1.1C43.2,5.8,43.5,6,43.9,6c0.4,0,0.8-0.1,1.1-0.4v0.3c-0.4,0.3-0.8,0.4-1.2,0.4
			c-0.5,0-0.8-0.2-1.1-0.5c-0.3-0.3-0.4-0.8-0.4-1.4c0-0.5,0.1-0.9,0.4-1.3c0.3-0.3,0.7-0.5,1.1-0.5c0.4,0,0.8,0.2,1,0.5
			s0.3,0.7,0.3,1.3v0.1H42.7z M44.9,4.1c0-0.4-0.1-0.7-0.3-0.9c-0.2-0.2-0.4-0.3-0.7-0.3c-0.3,0-0.6,0.1-0.8,0.3
			c-0.2,0.2-0.3,0.5-0.4,0.9H44.9z"/>
		<path class="st3" d="M48.6,6.2v-2c0-0.8-0.3-1.3-0.9-1.3c-0.3,0-0.6,0.1-0.8,0.4c-0.2,0.2-0.3,0.6-0.3,0.9v2h-0.3V2.7h0.3v0.6h0
			c0.3-0.5,0.7-0.7,1.2-0.7c0.4,0,0.7,0.1,0.9,0.4c0.2,0.3,0.3,0.6,0.3,1.1v2.1H48.6z"/>
		<path class="st3" d="M51.4,6.1c-0.2,0.1-0.3,0.1-0.5,0.1c-0.5,0-0.8-0.3-0.8-0.9V2.9h-0.6V2.7h0.6V1.8c0,0,0.1,0,0.2-0.1
			c0.1,0,0.1,0,0.2-0.1v1h0.9v0.3h-0.9v2.3c0,0.2,0,0.4,0.1,0.5c0.1,0.1,0.2,0.2,0.4,0.2c0.1,0,0.3,0,0.4-0.1V6.1z"/>
		<path class="st3" d="M52.2,4.4c0,0.5,0.1,0.9,0.3,1.1C52.8,5.8,53.1,6,53.5,6c0.4,0,0.8-0.1,1.1-0.4v0.3c-0.4,0.3-0.8,0.4-1.2,0.4
			c-0.5,0-0.8-0.2-1.1-0.5c-0.3-0.3-0.4-0.8-0.4-1.4c0-0.5,0.1-0.9,0.4-1.3c0.3-0.3,0.7-0.5,1.1-0.5c0.4,0,0.8,0.2,1,0.5
			s0.3,0.7,0.3,1.3v0.1H52.2z M54.5,4.1c0-0.4-0.1-0.7-0.3-0.9C54,3,53.8,2.9,53.5,2.9c-0.3,0-0.6,0.1-0.8,0.3
			c-0.2,0.2-0.3,0.5-0.4,0.9H54.5z"/>
		<path class="st3" d="M58.3,6.2V5.5h0C58.2,5.7,58,5.9,57.8,6c-0.2,0.1-0.5,0.2-0.8,0.2c-0.4,0-0.8-0.2-1.1-0.5
			c-0.3-0.3-0.4-0.7-0.4-1.3c0-0.6,0.1-1,0.4-1.4c0.3-0.3,0.7-0.5,1.2-0.5c0.5,0,0.9,0.2,1.1,0.6h0V1h0.3v5.2H58.3z M58.3,4
			c0-0.3-0.1-0.6-0.3-0.8c-0.2-0.2-0.5-0.3-0.8-0.3c-0.4,0-0.7,0.1-0.9,0.4c-0.2,0.3-0.4,0.7-0.4,1.2c0,0.5,0.1,0.9,0.3,1.1
			C56.5,5.8,56.8,6,57.1,6c0.4,0,0.7-0.1,0.9-0.4c0.2-0.2,0.3-0.5,0.3-0.9V4z"/>
		<path class="st3" d="M62,5.5L62,5.5l0,0.6h-0.3V1H62v2.4h0c0.1-0.3,0.3-0.5,0.5-0.6c0.2-0.1,0.5-0.2,0.8-0.2c0.4,0,0.8,0.2,1,0.5
			c0.2,0.3,0.4,0.7,0.4,1.2c0,0.6-0.1,1.1-0.4,1.4c-0.3,0.4-0.7,0.5-1.1,0.5C62.7,6.2,62.3,6,62,5.5z M62,4.2v0.4
			c0,0.4,0.1,0.7,0.3,0.9C62.6,5.8,62.9,6,63.2,6c0.4,0,0.6-0.2,0.9-0.5c0.2-0.3,0.3-0.7,0.3-1.2c0-0.4-0.1-0.8-0.3-1
			c-0.2-0.3-0.5-0.4-0.8-0.4c-0.4,0-0.7,0.1-0.9,0.4C62.1,3.5,62,3.9,62,4.2z"/>
		<path class="st3" d="M66.6,6.9c-0.1,0.3-0.3,0.5-0.4,0.7c-0.2,0.2-0.4,0.2-0.6,0.2c-0.1,0-0.2,0-0.3,0V7.4c0.1,0,0.2,0,0.3,0
			c0.3,0,0.5-0.2,0.7-0.6l0.3-0.8l-1.3-3.5h0.4l1.1,2.9c0,0.1,0,0.1,0,0.1c0,0,0,0.1,0,0.1h0l0.1-0.2l1.1-2.9h0.3L66.6,6.9z"/>
	</g>
</g>
<g id="Layer_3" class="st9">
</g>
<g id="Layer_4" class="st9">
</g>
</svg>
