<?xml version="1.0" encoding="utf-8"?>
<!-- Generator: Adobe Illustrator 21.1.0, SVG Export Plug-In . SVG Version: 6.00 Build 0)  -->
<svg version="1.1" xmlns="http://www.w3.org/2000/svg" xmlns:xlink="http://www.w3.org/1999/xlink" x="0px" y="0px"
	 viewBox="0 0 103.3 35" style="enable-background:new 0 0 103.3 35;" xml:space="preserve">
<style type="text/css">
	.st0{fill:#F2F2F2;}
	.st1{fill:url(#SVGID_1_);}
	.st2{fill:#FFFFFF;}
	.st3{fill:#005189;}
	.st4{fill:#00314C;}
	.st5{fill:url(#XMLID_196_);}
	.st6{fill:#33414A;}
	.st7{fill:#005E9D;}
	.st8{fill:url(#SVGID_2_);}
	.st9{display:none;}
	.st10{display:inline;}
	.st11{fill:#B8529E;}
</style>
<g id="Layer_1">
	<g>
		<path class="st3" d="M62.8,4.5v2h-0.3V1.6h1.2c0.5,0,0.9,0.1,1.2,0.4s0.4,0.6,0.4,1c0,0.5-0.1,0.8-0.4,1.1
			c-0.3,0.3-0.7,0.4-1.2,0.4H62.8z M62.8,1.9v2.3h0.7c0.4,0,0.8-0.1,1-0.3c0.2-0.2,0.3-0.5,0.3-0.9c0-0.7-0.4-1.1-1.3-1.1H62.8z"/>
		<path class="st3" d="M67.9,3.3c-0.1-0.1-0.2-0.1-0.4-0.1c-0.3,0-0.5,0.1-0.7,0.4c-0.2,0.3-0.3,0.7-0.3,1.2v1.6h-0.3V3h0.3v0.8h0
			c0.1-0.3,0.2-0.5,0.4-0.6c0.2-0.1,0.4-0.2,0.6-0.2c0.1,0,0.2,0,0.3,0.1V3.3z"/>
		<path class="st3" d="M68.7,4.8c0,0.5,0.1,0.9,0.3,1.1c0.2,0.3,0.5,0.4,0.9,0.4c0.4,0,0.8-0.1,1.1-0.4v0.3
			c-0.4,0.3-0.8,0.4-1.2,0.4c-0.5,0-0.8-0.2-1.1-0.5c-0.3-0.3-0.4-0.8-0.4-1.4c0-0.5,0.1-0.9,0.4-1.3c0.3-0.3,0.7-0.5,1.1-0.5
			c0.4,0,0.8,0.2,1,0.5c0.2,0.3,0.3,0.7,0.3,1.3v0.1H68.7z M70.9,4.5c0-0.4-0.1-0.7-0.3-0.9c-0.2-0.2-0.4-0.3-0.7-0.3
			c-0.3,0-0.6,0.1-0.8,0.3c-0.2,0.2-0.3,0.5-0.4,0.9H70.9z"/>
		<path class="st3" d="M72,6.4V6c0.1,0.1,0.3,0.2,0.4,0.2c0.2,0.1,0.3,0.1,0.4,0.1c0.5,0,0.8-0.2,0.8-0.7c0-0.2-0.1-0.3-0.2-0.4
			c-0.1-0.1-0.3-0.2-0.6-0.3c-0.3-0.1-0.6-0.3-0.7-0.5C72.1,4.3,72,4.1,72,3.9c0-0.3,0.1-0.5,0.3-0.7c0.2-0.2,0.5-0.3,0.8-0.3
			c0.3,0,0.6,0.1,0.8,0.2v0.4c-0.3-0.2-0.5-0.3-0.8-0.3c-0.2,0-0.4,0.1-0.6,0.2c-0.1,0.1-0.2,0.3-0.2,0.5c0,0.2,0,0.3,0.1,0.4
			s0.3,0.2,0.6,0.4c0.4,0.2,0.6,0.3,0.8,0.5C74,5.2,74,5.4,74,5.6c0,0.3-0.1,0.5-0.3,0.7c-0.2,0.2-0.5,0.3-0.9,0.3
			C72.5,6.6,72.2,6.5,72,6.4z"/>
		<path class="st3" d="M75.1,4.8c0,0.5,0.1,0.9,0.3,1.1c0.2,0.3,0.5,0.4,0.9,0.4c0.4,0,0.8-0.1,1.1-0.4v0.3
			c-0.4,0.3-0.8,0.4-1.2,0.4c-0.5,0-0.8-0.2-1.1-0.5c-0.3-0.3-0.4-0.8-0.4-1.4c0-0.5,0.1-0.9,0.4-1.3c0.3-0.3,0.7-0.5,1.1-0.5
			c0.4,0,0.8,0.2,1,0.5c0.2,0.3,0.3,0.7,0.3,1.3v0.1H75.1z M77.4,4.5c0-0.4-0.1-0.7-0.3-0.9c-0.2-0.2-0.4-0.3-0.7-0.3
			c-0.3,0-0.6,0.1-0.8,0.3c-0.2,0.2-0.3,0.5-0.4,0.9H77.4z"/>
		<path class="st3" d="M81.1,6.5v-2c0-0.8-0.3-1.3-0.9-1.3c-0.3,0-0.6,0.1-0.8,0.4C79.1,3.8,79,4.1,79,4.5v2h-0.3V3H79v0.6h0
			c0.3-0.5,0.7-0.7,1.2-0.7c0.4,0,0.7,0.1,0.9,0.4c0.2,0.3,0.3,0.6,0.3,1.1v2.1H81.1z"/>
		<path class="st3" d="M83.9,6.5c-0.2,0.1-0.3,0.1-0.5,0.1c-0.5,0-0.8-0.3-0.8-0.9V3.3H82V3h0.6V2.1c0.1,0,0.1,0,0.2-0.1
			C82.9,2,82.9,2,83,2v1h0.9v0.3H83v2.3c0,0.2,0,0.4,0.1,0.5c0.1,0.1,0.2,0.2,0.4,0.2c0.1,0,0.3,0,0.4-0.1V6.5z"/>
		<path class="st3" d="M84.7,4.8c0,0.5,0.1,0.9,0.3,1.1c0.2,0.3,0.5,0.4,0.9,0.4c0.4,0,0.8-0.1,1.1-0.4v0.3
			c-0.4,0.3-0.8,0.4-1.2,0.4c-0.5,0-0.8-0.2-1.1-0.5c-0.3-0.3-0.4-0.8-0.4-1.4c0-0.5,0.1-0.9,0.4-1.3c0.3-0.3,0.7-0.5,1.1-0.5
			c0.4,0,0.8,0.2,1,0.5c0.2,0.3,0.3,0.7,0.3,1.3v0.1H84.7z M87,4.5c0-0.4-0.1-0.7-0.3-0.9c-0.2-0.2-0.4-0.3-0.7-0.3
			c-0.3,0-0.6,0.1-0.8,0.3c-0.2,0.2-0.3,0.5-0.4,0.9H87z"/>
		<path class="st3" d="M90.8,6.5V5.9h0c-0.1,0.2-0.3,0.4-0.5,0.5c-0.2,0.1-0.5,0.2-0.8,0.2c-0.4,0-0.8-0.2-1.1-0.5s-0.4-0.7-0.4-1.3
			c0-0.6,0.1-1,0.4-1.4c0.3-0.3,0.7-0.5,1.2-0.5c0.5,0,0.9,0.2,1.1,0.6h0V1.3h0.3v5.2H90.8z M90.8,4.4c0-0.3-0.1-0.6-0.3-0.8
			c-0.2-0.2-0.5-0.3-0.8-0.3c-0.4,0-0.7,0.1-0.9,0.4s-0.4,0.7-0.4,1.2c0,0.5,0.1,0.9,0.3,1.1c0.2,0.3,0.5,0.4,0.8,0.4
			c0.4,0,0.7-0.1,0.9-0.4s0.3-0.5,0.3-0.9V4.4z"/>
		<path class="st3" d="M94.5,5.9L94.5,5.9l0,0.6h-0.3V1.3h0.3v2.4h0c0.1-0.3,0.3-0.5,0.5-0.6c0.2-0.1,0.5-0.2,0.8-0.2
			c0.4,0,0.8,0.2,1,0.5c0.2,0.3,0.4,0.7,0.4,1.3c0,0.6-0.1,1.1-0.4,1.4c-0.3,0.4-0.7,0.5-1.1,0.5C95.1,6.6,94.7,6.4,94.5,5.9z
			 M94.5,4.6V5c0,0.4,0.1,0.7,0.3,0.9c0.2,0.3,0.5,0.4,0.9,0.4c0.4,0,0.6-0.2,0.9-0.5c0.2-0.3,0.3-0.7,0.3-1.2c0-0.4-0.1-0.8-0.3-1
			c-0.2-0.3-0.5-0.4-0.8-0.4c-0.4,0-0.7,0.1-0.9,0.4C94.6,3.9,94.5,4.2,94.5,4.6z"/>
		<path class="st3" d="M99,7.2c-0.1,0.3-0.3,0.5-0.4,0.7c-0.2,0.2-0.4,0.2-0.6,0.2c-0.1,0-0.2,0-0.3,0V7.8c0.1,0,0.2,0,0.3,0
			c0.3,0,0.5-0.2,0.7-0.6L99,6.5L97.7,3H98l1.1,2.9c0,0.1,0,0.1,0,0.1c0,0,0,0.1,0,0.1h0l0.1-0.2l1.1-2.9h0.3L99,7.2z"/>
	</g>
	<g id="XMLID_44_">
		<path id="XMLID_387_" class="st6" d="M18.8,8.3c0.1,0.5,0.4,1.1,0.7,1.6c0.6,0.9,1.7,1.9,3.8,2.2c0.1,1.2,0.2,2.5,0.2,3.7
			c0,6-1.8,13.7-10.2,16.8C4.8,29.5,3,21.7,3,15.6c0-1.2,0.1-2.4,0.2-3.5c2.1-0.3,3.2-1.3,3.8-2.2c0.4-0.5,0.6-1.1,0.7-1.6H18.8
			 M20.1,6.8H6.5c0,0,0,0.1,0,0.1c0,0.3-0.1,1.3-0.7,2.1c-0.6,0.9-1.7,1.7-3.9,1.7c-0.2,1-0.4,2.8-0.4,4.9c0,6.1,1.8,15.2,11.8,18.4
			C23.3,30.8,25,21.8,25,15.8c0-2.2-0.2-4.1-0.4-5.1c-2.2,0-3.3-0.8-3.9-1.7C20.1,8.2,20.1,7.2,20.1,6.8C20.1,6.9,20.1,6.8,20.1,6.8
			L20.1,6.8z"/>
		<path id="XMLID_386_" class="st6" d="M9.2,18.7c0-3.1,0.5-6.1,1.5-8.9H8.8c-0.1,0.3-0.3,0.6-0.6,1c-0.7,0.9-1.8,2-3.7,2.6
			c-0.1,0.8-0.1,1.6-0.1,2.3c0,3.5,0.6,6.5,1.8,9c1.2,2.5,3.1,4.4,5.5,5.7C10.2,26.8,9.2,22.8,9.2,18.7z"/>
		<g id="XMLID_120_">
			<path id="XMLID_382_" class="st6" d="M32.3,24.9c-1,0-2-0.2-2.8-0.6l0.3-1.9c0.9,0.4,1.6,0.7,2.3,0.7c0.6,0,0.9-0.3,0.9-0.8
				c0-0.5-0.3-0.9-1.4-1.6c-1-0.7-2-1.5-2-2.9c0-1.7,1.1-2.8,2.9-2.8c1,0,1.6,0.2,2.3,0.5l-0.3,2c-0.7-0.4-1.3-0.6-1.8-0.6
				c-0.5,0-0.8,0.3-0.8,0.7c0,0.5,0.3,0.8,1.3,1.4c1.1,0.7,2.1,1.6,2.1,3.1C35.3,23.9,34,24.9,32.3,24.9z"/>
			<path id="XMLID_372_" class="st6" d="M42.8,24.8l-0.2-6.8l-1.2,6.8h-2.2L38,18.1l-0.3,6.8h-2l0.4-9.6h3.1l1.1,6.4l1.1-6.4h3.1
				l0.4,9.6H42.8z"/>
			<path id="XMLID_369_" class="st6" d="M50.7,24.9l-0.4-2.1h-2.1l-0.4,2h-2.3l2.5-9.6h2.7l2.4,9.3L50.7,24.9z M49.2,17.8L48.5,21
				h1.4L49.2,17.8z"/>
			<path id="XMLID_358_" class="st6" d="M56,21.4h-0.3v3.4h-2.2v-9.6h2.5c2.1,0,3.5,1,3.5,3c0,1.3-0.6,2.1-1.5,2.6l1.9,3.8l-2.3,0.3
				L56,21.4z M56,19.8c0.9,0,1.4-0.4,1.4-1.4c0-1-0.5-1.4-1.4-1.4h-0.2v2.8H56z"/>
			<path id="XMLID_355_" class="st6" d="M64.3,17.2v7.6H62v-7.6h-2v-2h6.2l0.3,2H64.3z"/>
			<path id="XMLID_353_" class="st6" d="M69.3,17.2v1.9h1.8l0.3,2h-2.1v3.7H67v-9.6h4.9v2H69.3z"/>
			<path id="XMLID_349_" class="st6" d="M75.8,25c-2.4,0-3.7-1.9-3.7-5c0-3,1.3-5,3.7-5c2.4,0,3.6,1.9,3.6,5S78.3,25,75.8,25z
				 M75.8,16.9c-1,0-1.3,1.2-1.3,3.1s0.4,3.1,1.3,3.1c0.9,0,1.3-1.2,1.3-3.1S76.8,16.9,75.8,16.9z"/>
			<path id="XMLID_340_" class="st6" d="M82.8,21.4h-0.3v3.4h-2.2v-9.6h2.5c2.1,0,3.5,1,3.5,3c0,1.3-0.6,2.1-1.5,2.6l1.9,3.8
				l-2.3,0.3L82.8,21.4z M82.8,19.8c0.9,0,1.4-0.4,1.4-1.4c0-1-0.5-1.4-1.4-1.4h-0.2v2.8H82.8z"/>
			<path id="XMLID_192_" class="st6" d="M90.6,25c-2.5,0-3.7-1.8-3.7-4.9c0-3.1,1.3-5,3.6-5c0.9,0,1.6,0.2,2.1,0.5l-0.3,2
				c-0.6-0.4-0.9-0.6-1.5-0.6c-1,0-1.6,1-1.6,3c0,2,0.6,3,1.8,3c0.5,0,0.9-0.2,1.5-0.6l0.3,1.9C92.2,24.7,91.5,25,90.6,25z"/>
			<path id="XMLID_189_" class="st6" d="M93.5,24.8v-9.6h5.1v1.9h-2.8v1.8h2l0.3,1.9h-2.3V23h2.9v1.9H93.5z"/>
			<path id="XMLID_121_" class="st6" d="M99.8,15.5V17h-0.2v-1.5h-0.4v-0.2h1l0,0.2H99.8z M101.6,17l-0.1-1.3l-0.4,1.3h-0.2
				l-0.4-1.3l-0.1,1.3h-0.2l0.1-1.7h0.3l0.4,1.3l0.4-1.3h0.3l0.1,1.7H101.6z"/>
		</g>
		<g id="XMLID_46_">
			<g>
				<path id="XMLID_60_" class="st7" d="M13.4,24.5c-1,0-2-0.2-2.8-0.6l0.3-1.9c0.9,0.4,1.6,0.7,2.3,0.7c0.6,0,0.9-0.3,0.9-0.8
					c0-0.5-0.3-0.9-1.4-1.6c-1-0.7-2-1.5-2-2.9c0-1.7,1.1-2.8,2.9-2.8c1,0,1.6,0.2,2.3,0.5l-0.3,2c-0.7-0.4-1.3-0.6-1.8-0.6
					c-0.5,0-0.8,0.3-0.8,0.7c0,0.5,0.3,0.8,1.3,1.4c1.1,0.7,2.1,1.6,2.1,3.1C16.4,23.5,15.2,24.5,13.4,24.5z"/>
				<path id="XMLID_50_" class="st7" d="M19.5,16.8v1.9h1.8l0.3,2h-2.1v3.7h-2.3v-9.6h4.9v2H19.5z"/>
			</g>
		</g>
	</g>
</g>
<g id="Layer_3" class="st9">
</g>
<g id="Layer_4" class="st9">
</g>
</svg>
