<?xml version="1.0" encoding="utf-8"?>
<!-- Generator: Adobe Illustrator 23.0.1, SVG Export Plug-In . SVG Version: 6.00 Build 0)  -->
<svg version="1.1" id="Layer_1" xmlns="http://www.w3.org/2000/svg" xmlns:xlink="http://www.w3.org/1999/xlink" x="0px" y="0px"
	 viewBox="0 0 712 114" style="enable-background:new 0 0 712 114;" xml:space="preserve">
<style type="text/css">
	.st0{fill:#A5A5A5;}
	.st1{fill:#A5A5A5;stroke:#33414A;stroke-width:0.25;stroke-miterlimit:10;}
</style>
<g>
	<path class="st0" d="M33.9,106.2c-9.9,0-19.2-2-27.5-6l3-19.1c8.4,4.4,15.4,6.8,22.3,6.8c5.9,0,9.1-2.9,9.1-7.4
		c0-5.3-3.4-8.7-13.6-15.4C17.3,58.8,7.6,50.9,7.6,37c0-16.2,11-27,28.1-27c9.5,0,15.9,1.6,22.5,4.6l-2.9,19.2
		c-7-4.1-12.4-5.6-17.9-5.6c-4.6,0-7.5,3-7.5,6.5c0,4.5,3.3,7.5,12.9,13.6C53.3,55,63.1,63.6,63.1,78.4
		C63.2,96.2,51.4,106.2,33.9,106.2z"/>
	<path class="st0" d="M136.7,105.2L134.4,39L123,105.3h-21.9L89.6,38.9l-2.5,66.2H67.6l3.7-94H102l10.9,62.6l11-62.6h30.5l3.8,94
		L136.7,105.2L136.7,105.2z"/>
	<path class="st0" d="M213.2,106l-4.4-20.4h-20.7l-4.2,19.6h-22.2l24.4-94.3h26.8l23.3,91.4L213.2,106z M198.6,36.3l-6.8,31.8h13.5
		L198.6,36.3z"/>
	<path class="st0" d="M264.7,71.9h-2.5v33.3h-21.7v-94h24.7c20.3,0,33.9,9.7,33.9,29.3c0,12.4-5.7,20.4-14.6,25.2l18.9,37.1
		l-22.2,3.4L264.7,71.9z M264,56.2c8.7,0,13.9-4,13.9-14.2c0-9.5-5-13.5-13.8-13.5H262v27.7H264z"/>
	<path class="st0" d="M345.3,30.5v74.7h-22.5V30.5H303V11.1h60.2l3,19.4H345.3z"/>
	<path class="st0" d="M393.3,30.3v19.1h17.4l3.1,19.5h-20.6v36.2H371v-94h47.7v19.2C418.7,30.3,393.3,30.3,393.3,30.3z"/>
	<path class="st0" d="M456.5,106.9c-23.8,0-35.8-18.9-35.8-48.7S433,9.3,456.8,9.3c23.7,0,35.7,18.9,35.7,48.7
		S480.2,106.9,456.5,106.9z M456.6,27.3c-9.5,0-12.9,11.6-12.9,30.8s3.5,30.8,12.9,30.8c9.3,0,12.8-11.6,12.8-30.8
		S465.7,27.3,456.6,27.3z"/>
	<path class="st0" d="M524.5,71.9H522v33.3h-21.7v-94H525c20.3,0,33.9,9.7,33.9,29.3c0,12.4-5.7,20.4-14.6,25.2l18.9,37.1l-22.2,3.4
		L524.5,71.9z M523.8,56.2c8.7,0,13.9-4,13.9-14.2c0-9.5-5-13.5-13.8-13.5h-2.2v27.7H523.8z"/>
	<path class="st0" d="M599.8,106.7c-24.1,0-36.1-18-36.1-48.4c0-30,12.5-48.7,35.6-48.7c9.1,0,15.4,1.9,21,5.2l-3,19.4
		c-5.6-3.8-9.3-5.7-15.1-5.7c-9.9,0-15.4,10.2-15.4,29.7c0,19.6,5.6,29.7,17.2,29.7c4.6,0,9-1.9,14.7-5.7l3.1,18.5
		C615,104.2,608.3,106.7,599.8,106.7z"/>
	<path class="st0" d="M627.4,105.2v-94H677v18.4h-27.5V47h19.8l3.1,18.8h-22.9v21h28.6v18.4C678.1,105.2,627.4,105.2,627.4,105.2z"
		/>
	<path class="st1" d="M694.5,30.8c-6.6,0-11.5-5.4-11.5-12.1s4.9-12,11.5-12s11.5,5.4,11.5,12S701.1,30.8,694.5,30.8z M694.5,8.2
		c-5.9,0-9.8,4.7-9.8,10.5c0,5.9,3.9,10.5,9.8,10.5c5.9,0,9.8-4.6,9.8-10.5C704.3,12.9,700.4,8.2,694.5,8.2z M696.4,25.5l-2.3-4.9
		H694v4.8h-4.3V11.2h4.3c3.6,0,6,1.4,6,4.6c0,2-0.9,3.1-1.9,3.9l2.8,5.2L696.4,25.5z M694.1,14.4L694.1,14.4L694,18h0.1
		c1.2,0,1.8-0.5,1.8-1.8C695.9,14.8,695.2,14.4,694.1,14.4z"/>
</g>
</svg>
