<?xml version="1.0" encoding="utf-8"?>
<!-- Generator: Adobe Illustrator 21.0.0, SVG Export Plug-In . SVG Version: 6.00 Build 0)  -->
<svg version="1.1" xmlns="http://www.w3.org/2000/svg" xmlns:xlink="http://www.w3.org/1999/xlink" x="0px" y="0px"
	 viewBox="0 0 650.3 119.4" style="enable-background:new 0 0 650.3 119.4;" xml:space="preserve">
<style type="text/css">
	.st0{display:none;}
	.st1{display:inline;}
	.st2{fill:#33414A;}
	.st3{fill:#005E9D;}
	.st4{fill:#005189;}
	.st5{fill:#AAAAAA;}
</style>
<g id="Layer_1" class="st0">
</g>
<g id="Layer_2" class="st0">
</g>
<g id="Layer_3" class="st0">
</g>
<g id="Layer_4">
	<polygon class="st5" points="614.4,40.6 614.4,43.5 619.1,43.5 619.1,56 622.5,56 622.5,43.5 627.4,43.5 627,40.6 	"/>
	<polygon class="st5" points="645.8,40.6 641.7,40.6 637.9,51.4 634.1,40.6 629.9,40.6 628.7,56 631.8,56 632.6,45.9 636.2,56 
		639.1,56 642.7,45.9 643.5,56 647,56 	"/>
	<polygon class="st5" points="223.7,93.7 206.7,39.5 186.8,42 213.5,117.2 231.9,117.2 258.9,40.6 240.1,40.6 	"/>
	<path class="st5" d="M296.1,39c-19.9,0-34.7,15-34.7,39.8c0,27.5,15.9,39.6,37.3,39.6c12.3,0,22.3-3.6,30.5-9.3l-2.2-14.8
		c-8.4,5.8-16.4,9.5-26.2,9.5c-11.7,0-19.6-6.5-20.5-21.3h48.9c0-1.1,0.2-3,0.2-4.6C329.3,56.3,319,39,296.1,39z M280.5,70.6
		c1.4-12.5,7.6-18.5,15.2-18.5c9.2,0,13.9,6.6,15.2,18.5H280.5z"/>
	<path class="st5" d="M383.2,39c-10.3,0-18.3,5.5-25.4,12.3L356,40.6h-16.1v76.2h18.9V65.4c5.5-5.8,11.4-9.6,17.4-9.6
		c6.9,0,9.8,4.6,9.8,11.2v49.9H405V61.9C405,47.7,397.4,39,383.2,39z"/>
	<path class="st5" d="M504,39c-20.7,0-35.8,15-35.8,39.8s15,39.6,35.7,39.6c20.8,0,36.1-14.8,36.1-39.6S524.9,39,504,39z M503.9,103
		c-11,0-17.2-10.3-17.2-24.2c0-14.2,6-24.2,17.2-24.2c11.4,0,17.7,10.1,17.7,24.2C521.6,93,515.6,103,503.9,103z"/>
	<path class="st5" d="M579.1,69.7c-11.4-3-14.2-5.2-14.2-9.3c0-4.3,3.5-6.9,10.6-6.9c7.6,0,16.6,2.7,24.2,6.9l2.5-15.8
		c-7.6-3.5-16.7-5.4-26.7-5.4c-17.7,0-28.1,9.3-28.1,22.4c0,13.9,7.7,19.3,26.2,24c12.2,3,15.5,5.2,15.5,10.6
		c0,4.9-4.4,7.9-12.6,7.9c-9.5,0-19.6-3.6-27.8-9l-2.5,15.8c7.3,3.9,18.6,7.4,29.7,7.4c20,0,30.8-8.8,30.8-23.8
		C606.6,80.1,598.9,74.7,579.1,69.7z"/>
	<path class="st5" d="M159.5,42.7c-4.6-1.6-10.4-2.8-17.7-2.8c-17.7,0-33.3,12.6-33.3,41c0,25.7,12.8,37.6,28.7,37.6
		c10.6,0,18-5.7,23.4-12.2l1.6,10.6h16.3V2.9l-18.9,6V42.7z M159.5,91.1c-5.1,6.3-10.4,10.4-17.4,10.4c-8.4,0-14.7-6.9-14.7-21.8
		c0-16.7,7.3-24.8,17.2-24.8c6.5,0,10.1,1.1,14.8,3.3V91.1z"/>
	<path class="st5" d="M455.6,101.6c-7.3,0-10.1-3.3-10.1-9.5v-36h18l-2.4-15.5h-15.6v-27l-18.6,5.8v21.2h-10.7v15.5h10.7v39.1
		c0,17.4,10.1,22.9,25.1,22.9c5.5,0,9-0.6,12-1.3l-2.4-15.9C459.9,101.4,457.8,101.6,455.6,101.6z"/>
	<g>
		<path class="st5" d="M96,88.2L65.7,7.5H43.5L2.6,116.9h2.7h16.9v0c7.3-16.7,22.5-29,40.8-32.4l-5.3-15.1
			c-7.7,1.7-14.9,4.6-21.4,8.5l17.3-47.7l0,0l14.8,42L72.3,83l0.2,0.7l0,0l1.9,5.6L84.8,118l20.8-3.8L96,88.2L96,88.2z"/>
	</g>
</g>
</svg>
