<?xml version="1.0" encoding="utf-8"?>
<!-- Generator: Adobe Illustrator 21.1.0, SVG Export Plug-In . SVG Version: 6.00 Build 0)  -->
<svg version="1.1" xmlns="http://www.w3.org/2000/svg" xmlns:xlink="http://www.w3.org/1999/xlink" x="0px" y="0px"
	 viewBox="0 0 174.7 28.7" style="enable-background:new 0 0 174.7 28.7;" xml:space="preserve">
<style type="text/css">
	.st0{fill:#F2F2F2;}
	.st1{fill:url(#SVGID_1_);}
	.st2{fill:#FFFFFF;}
	.st3{fill:#005189;}
	.st4{fill:#00314C;}
	.st5{fill:url(#XMLID_121_);}
	.st6{fill:#33414A;}
	.st7{fill:#005E9D;}
	.st8{fill:url(#SVGID_2_);}
	.st9{display:none;}
	.st10{display:inline;}
	.st11{fill:#B8529E;}
</style>
<g id="Layer_1">
	<g id="XMLID_44_">
		<path id="XMLID_372_" class="st2" d="M8.5,26c-2.4,0-4.6-0.5-6.6-1.4l0.7-4.6c2,1.1,3.7,1.6,5.4,1.6c1.4,0,2.2-0.7,2.2-1.8
			c0-1.3-0.8-2.1-3.3-3.7c-2.4-1.5-4.7-3.5-4.7-6.8c0-3.9,2.7-6.5,6.8-6.5c2.3,0,3.9,0.4,5.4,1.1l-0.7,4.6c-1.7-1-3-1.3-4.3-1.3
			c-1.1,0-1.8,0.7-1.8,1.6c0,1.1,0.8,1.8,3.1,3.3c2.5,1.6,4.9,3.7,4.9,7.3C15.6,23.5,12.7,26,8.5,26z"/>
		<path id="XMLID_370_" class="st2" d="M33.5,25.7l-0.6-16l-2.7,16h-5.3l-2.8-16l-0.6,16h-4.7L17.7,3h7.4l2.6,15.1L30.4,3h7.4
			l0.9,22.7H33.5z"/>
		<path id="XMLID_359_" class="st2" d="M52.1,25.9L51.1,21h-5l-1,4.7h-5.4l5.9-22.8H52L57.7,25L52.1,25.9z M48.6,9.1l-1.6,7.7h3.3
			L48.6,9.1z"/>
		<path id="XMLID_355_" class="st2" d="M64.7,17.7h-0.6v8h-5.2V3h6c4.9,0,8.2,2.3,8.2,7.1c0,3-1.4,4.9-3.5,6.1l4.6,9l-5.4,0.8
			L64.7,17.7z M64.6,13.9c2.1,0,3.4-1,3.4-3.4c0-2.3-1.2-3.3-3.3-3.3h-0.5v6.7H64.6z"/>
		<path id="XMLID_353_" class="st2" d="M84.3,7.7v18h-5.4v-18h-4.8V3h14.5l0.7,4.7H84.3z"/>
		<path id="XMLID_351_" class="st2" d="M96.1,7.6v4.6h4.2l0.8,4.7h-5v8.8h-5.4V3h11.5v4.6H96.1z"/>
		<path id="XMLID_347_" class="st2" d="M111.5,26.1c-5.8,0-8.7-4.6-8.7-11.8c0-7.2,3-11.8,8.7-11.8c5.7,0,8.6,4.6,8.6,11.8
			S117.2,26.1,111.5,26.1z M111.6,6.9c-2.3,0-3.1,2.8-3.1,7.4s0.9,7.4,3.1,7.4c2.2,0,3.1-2.8,3.1-7.4S113.8,6.9,111.6,6.9z"/>
		<path id="XMLID_76_" class="st2" d="M128.1,17.7h-0.6v8h-5.2V3h6c4.9,0,8.2,2.3,8.2,7.1c0,3-1.4,4.9-3.5,6.1l4.6,9l-5.4,0.8
			L128.1,17.7z M128,13.9c2.1,0,3.4-1,3.4-3.4c0-2.3-1.2-3.3-3.3-3.3h-0.5v6.7H128z"/>
		<path id="XMLID_67_" class="st2" d="M146.5,26.1c-5.8,0-8.7-4.3-8.7-11.7c0-7.2,3-11.8,8.6-11.8c2.2,0,3.7,0.5,5.1,1.3l-0.7,4.7
			c-1.3-0.9-2.2-1.4-3.7-1.4c-2.4,0-3.7,2.5-3.7,7.2c0,4.7,1.3,7.2,4.1,7.2c1.1,0,2.2-0.5,3.6-1.4l0.8,4.5
			C150.1,25.5,148.5,26.1,146.5,26.1z"/>
		<path id="XMLID_58_" class="st2" d="M153.3,25.7V3h12v4.4h-6.6v4.2h4.8l0.8,4.5h-5.5v5.1h6.9v4.4H153.3z"/>
		<path id="XMLID_46_" class="st2" d="M168.3,3.6v3.5h-0.5V3.6h-0.9V3.1h2.4l0.1,0.5H168.3z M172.4,7.1l-0.1-3l-0.9,3h-0.5l-0.9-3
			l-0.1,3h-0.5l0.2-4h0.6l0.9,3.2l0.9-3.2h0.6l0.2,4H172.4z"/>
	</g>
</g>
<g id="Layer_3" class="st9">
</g>
<g id="Layer_4" class="st9">
</g>
</svg>
